<svg width="32" height="33" viewBox="0 0 32 33" fill="none" xmlns="http://www.w3.org/2000/svg">
<g id="twitter-2 1" clip-path="url(#clip0_1_307)">
<path id="Vector" d="M32 6.578C30.81 7.1 29.542 7.446 28.22 7.614C29.58 6.802 30.618 5.526 31.106 3.988C29.838 4.744 28.438 5.278 26.946 5.576C25.742 4.294 24.026 3.5 22.154 3.5C18.522 3.5 15.598 6.448 15.598 10.062C15.598 10.582 15.642 11.082 15.75 11.558C10.296 11.292 5.47 8.678 2.228 4.696C1.662 5.678 1.33 6.802 1.33 8.012C1.33 10.284 2.5 12.298 4.244 13.464C3.19 13.444 2.156 13.138 1.28 12.656C1.28 12.676 1.28 12.702 1.28 12.728C1.28 15.916 3.554 18.564 6.536 19.174C6.002 19.32 5.42 19.39 4.816 19.39C4.396 19.39 3.972 19.366 3.574 19.278C4.424 21.876 6.836 23.786 9.704 23.848C7.472 25.594 4.638 26.646 1.57 26.646C1.032 26.646 0.516 26.622 0 26.556C2.906 28.43 6.35 29.5 10.064 29.5C22.136 29.5 28.736 19.5 28.736 10.832C28.736 10.542 28.726 10.262 28.712 9.984C30.014 9.06 31.108 7.906 32 6.578Z" fill="white"/>
</g>
<defs>
<clipPath id="clip0_1_307">
<rect width="32" height="32" fill="white" transform="translate(0 0.5)"/>
</clipPath>
</defs>
</svg>
